<svg width="391" height="241" viewBox="0 0 391 241" fill="none" xmlns="http://www.w3.org/2000/svg">
<path d="M242.386 20H147.955C141.783 20 136.784 24.9988 136.784 31.1714V125.592C136.784 131.765 141.783 136.764 147.955 136.764H242.386C248.559 136.764 253.558 131.765 253.558 125.592V31.1714C253.558 24.9988 248.559 20 242.386 20ZM185.882 75.0274C185.872 75.4018 185.861 75.7661 185.861 76.1405V127.606H163.498V110.616L188.179 65.8393C186.813 68.6322 185.993 71.7387 185.882 75.0375V75.0274ZM188.179 63.9774H153.602V29.4006H188.179V63.9774ZM224.597 52.7959H209.267C200.838 52.7959 193.329 57.2482 189.201 63.9774L208.386 29.1577H224.597V52.7959Z" fill="#0055FF"/>
<path d="M20 161.26V169.679H39.1655V219.606H48.5863V169.679V161.26H20Z" fill="#0055FF"/>
<path d="M87.1905 178.341L65.7685 199.398V219.606H74.3596V197.354C74.3596 189.775 79.5304 186.102 85.4501 186.102C88.6173 186.102 94.4763 186.142 96.6215 186.142V178.341H87.2007H87.1905Z" fill="#0055FF"/>
<path d="M130.733 179.008C115.038 174.212 100.436 181.903 100.436 199.034C100.436 213.039 109.513 220.79 121.524 220.699H144.282V197.526C144.282 189.057 138.818 181.488 130.723 179.008H130.733ZM135.084 208.03C135.064 210.61 133.08 212.745 130.51 212.948C123.214 213.484 109.624 212.553 109.624 198.204C109.624 190.17 115.342 185.252 122.324 185.252C134.487 185.252 135.003 197.547 135.013 197.8C135.114 201.301 135.114 205.166 135.084 208.03Z" fill="#0055FF"/>
<path d="M275.85 179.008C260.155 174.212 245.554 181.903 245.554 199.034C245.554 213.039 254.63 220.79 266.642 220.699H289.4V197.526C289.4 189.057 283.935 181.488 275.84 179.008H275.85ZM280.201 208.03C280.181 210.61 278.198 212.745 275.627 212.948C268.332 213.484 254.742 212.553 254.742 198.204C254.742 190.17 260.459 185.252 267.441 185.252C279.604 185.252 280.12 197.547 280.13 197.8C280.232 201.301 280.232 205.166 280.201 208.03Z" fill="#0055FF"/>
<path d="M178.13 177.855C172.788 177.855 168.204 180.02 164.298 184.442L163.802 178.442H155.97V219.616H164.551V198.113C164.551 191.354 169.216 185.778 176.056 185.778C182.897 185.778 187.147 190.524 187.147 197.607V219.616H195.819V197.526C195.819 184.938 188.148 177.855 178.151 177.855H178.13Z" fill="#0055FF"/>
<path d="M228.058 198.69L241.891 178.766V178.513H231.468L222.381 193.185L213.213 178.513H202.872V178.766L216.704 198.69L201.951 219.363V219.606H212.292L222.371 204.691L232.46 219.606H242.801V219.363L228.048 198.69H228.058Z" fill="#0055FF"/>
<path d="M329.997 208.526C327.326 211.278 323.754 212.361 320.242 212.361C313.159 212.361 307.158 207.777 307.158 199.115C307.158 190.939 312.906 185.697 320.323 185.697C323.572 185.697 326.992 186.861 329.572 189.37L335.077 183.613C330.665 179.282 325.909 177.531 320.242 177.531C308.322 177.531 298.567 184.948 298.567 199.125C298.567 213.302 308.413 220.709 320.242 220.709C326.162 220.709 331.242 218.797 335.836 214.294L329.997 208.536V208.526Z" fill="#0055FF"/>
<path d="M367.842 210.944C366.173 211.784 364.26 212.361 362.591 212.361C358.584 212.361 356.671 209.942 356.671 205.611V186.021H368.753V178.604H356.752V166.694L348.08 167.614V205.622C348.08 215.295 353.16 220.375 362.085 220.122C365.009 220.122 367.509 219.545 370.342 218.291L367.842 210.954V210.944Z" fill="#0055FF"/>
<path d="M73.1756 178.341H65.7685V186.537H73.1756V178.341Z" fill="#0055FF"/>
</svg>
