<svg width="183" height="183" viewBox="0 0 183 183" fill="none" xmlns="http://www.w3.org/2000/svg">
<path d="M148.457 20H33.5892C26.0806 20 20 26.0812 20 33.5903V148.456C20 155.965 26.0806 162.046 33.5892 162.046H148.457C155.965 162.046 162.046 155.965 162.046 148.456V33.5903C162.046 26.0812 155.965 20 148.457 20ZM79.7234 86.9423C79.711 87.3977 79.6988 87.8409 79.6988 88.2964V150.905H52.4958V130.237L82.5175 75.7647C80.8558 79.1623 79.8588 82.9415 79.7234 86.9546V86.9423ZM82.5175 73.4996H40.4576V31.4361H82.5175V73.4996ZM126.818 59.897H108.17C97.9161 59.897 88.7828 65.3134 83.7607 73.4996L107.099 31.1406H126.818V59.897Z" fill="white"/>
</svg>
