<svg width="559" height="176" viewBox="0 0 559 176" fill="none" xmlns="http://www.w3.org/2000/svg">
<path d="M135.199 28.9856H40.2216C34.0133 28.9856 28.9855 34.0134 28.9855 40.2217V135.189C28.9855 141.398 34.0133 146.425 40.2216 146.425H135.199C141.408 146.425 146.436 141.398 146.436 135.189V40.2217C146.436 34.0134 141.408 28.9856 135.199 28.9856ZM78.3675 84.3316C78.3573 84.7082 78.3471 85.0746 78.3471 85.4512V137.215H55.8545V120.126L80.6778 75.0903C79.3038 77.8994 78.4794 81.0239 78.3675 84.3418V84.3316ZM80.6778 73.2176H45.9008V38.4406H80.6778V73.2176ZM117.307 61.9713H101.888C93.41 61.9713 85.8582 66.4495 81.7057 73.2176L101.003 38.1964H117.307V61.9713Z" fill="black"/>
<path d="M176.87 57.8086V66.2764H196.147V116.493H205.622V66.2764V57.8086H176.87Z" fill="black"/>
<path d="M244.45 74.9885L222.904 96.1682V116.493H231.545V94.1123C231.545 86.4892 236.745 82.7947 242.699 82.7947C245.885 82.7947 251.778 82.8354 253.936 82.8354V74.9885H244.46H244.45Z" fill="black"/>
<path d="M288.244 75.6602C272.459 70.836 257.773 78.571 257.773 95.8017C257.773 109.888 266.902 117.684 278.983 117.592H301.872V94.2853C301.872 85.7666 296.376 78.1537 288.234 75.6602H288.244ZM292.621 104.85C292.601 107.445 290.606 109.592 288.021 109.796C280.682 110.335 267.014 109.399 267.014 94.9672C267.014 86.8861 272.764 81.9398 279.787 81.9398C292.02 81.9398 292.539 94.3056 292.55 94.5601C292.651 98.0815 292.651 101.969 292.621 104.85Z" fill="black"/>
<path d="M434.202 75.6602C418.417 70.836 403.73 78.571 403.73 95.8017C403.73 109.888 412.86 117.684 424.94 117.592H447.83V94.2853C447.83 85.7666 442.334 78.1537 434.192 75.6602H434.202ZM438.579 104.85C438.558 107.445 436.563 109.592 433.978 109.796C426.64 110.335 412.972 109.399 412.972 94.9672C412.972 86.8861 418.722 81.9398 425.745 81.9398C437.978 81.9398 438.497 94.3056 438.507 94.5601C438.609 98.0815 438.609 101.969 438.579 104.85Z" fill="black"/>
<path d="M335.916 74.4999C330.543 74.4999 325.932 76.6779 322.004 81.1255L321.505 75.0902H313.627V116.503H322.258V94.8755C322.258 88.0769 326.95 82.469 333.83 82.469C340.71 82.469 344.985 87.2423 344.985 94.3666V116.503H353.707V94.2852C353.707 81.6242 345.992 74.4999 335.937 74.4999H335.916Z" fill="black"/>
<path d="M386.133 95.4557L400.046 75.4159V75.1614H389.563L380.423 89.919L371.202 75.1614H360.801V75.4159L374.714 95.4557L359.875 116.249V116.493H370.276L380.413 101.491L390.56 116.493H400.962V116.249L386.123 95.4557H386.133Z" fill="black"/>
<path d="M488.662 105.348C485.976 108.117 482.383 109.206 478.851 109.206C471.727 109.206 465.691 104.595 465.691 95.8832C465.691 87.6597 471.472 82.3876 478.933 82.3876C482.2 82.3876 485.64 83.5581 488.235 86.0821L493.772 80.291C489.334 75.935 484.551 74.1743 478.851 74.1743C466.862 74.1743 457.051 81.6345 457.051 95.8934C457.051 110.152 466.954 117.602 478.851 117.602C484.805 117.602 489.914 115.679 494.535 111.15L488.662 105.359V105.348Z" fill="black"/>
<path d="M526.727 107.781C525.048 108.626 523.124 109.206 521.445 109.206C517.415 109.206 515.491 106.773 515.491 102.417V82.7133H527.643V75.2531H515.572V63.274L506.85 64.2001V102.427C506.85 112.157 511.959 117.266 520.936 117.012C523.877 117.012 526.391 116.432 529.241 115.17L526.727 107.791V107.781Z" fill="black"/>
<path d="M230.354 74.9886H222.904V83.2324H230.354V74.9886Z" fill="black"/>
</svg>
